<?xml version="1.0" encoding="utf-8"?>
<svg width="64px" height="64px" viewBox="0 0 24 24" fill="#ffffff" xmlns="http://www.w3.org/2000/svg">
    <path d="M18.82,8c-.8-3.46-4.3-6-8.32-6C5.81,2,2,5.36,2,9.5a6.82,6.82,0,0,0,1.06,3.63l-1,3.6a1,1,0,0,0,.3,1A1,1,0,0,0,3,18a1,1,0,0,0,.39-.08l3.66-1.56A9.6,9.6,0,0,0,10.5,17c4.69,0,8.5-3.36,8.5-7.5A6.27,6.27,0,0,0,18.82,8Z"/>
    <path d="M21,22a1,1,0,0,1-.39-.08L17,20.36A9.6,9.6,0,0,1,13.5,21a8.44,8.44,0,0,1-8-5.1A1,1,0,0,1,6,14.61a1,1,0,0,1,1.29.58A6.44,6.44,0,0,0,13.5,19a7.55,7.55,0,0,0,3.05-.64,1,1,0,0,1,.8,0l2.11.9-.57-2a1,1,0,0,1,.15-.86,4.83,4.83,0,0,0,1-2.87,5.31,5.31,0,0,0-2.68-4.44,1,1,0,0,1,1.06-1.7A7.28,7.28,0,0,1,22,13.5a6.82,6.82,0,0,1-1.06,3.63l1,3.6a1,1,0,0,1-.3,1A1,1,0,0,1,21,22Z"/>
</svg>